<?xml version="1.0" encoding="UTF-8"?>
<svg id="Capa_1" data-name="Capa 1" xmlns="http://www.w3.org/2000/svg" viewBox="0 0 512 512">
  <defs>
    <style>
      .cls-1 {
        fill: #fff;
      }

      .cls-1, .cls-2 {
        stroke-width: 0px;
      }

      .cls-2 {
        fill: #ed1d24;
      }
    </style>
  </defs>
  <rect class="cls-2" width="512" height="512"/>
  <path class="cls-1" d="M221.3,325.39c0-13.37,2.07-26.11,6.23-38.22,4.15-12.1,11.84-26.11,23.04-42.02,13.01-18.43,21.86-34.33,26.56-47.71,4.69-13.37,7.05-27.46,7.05-42.29,0-13.01-2.53-22.5-7.59-28.46-5.07-5.96-12.47-8.95-22.23-8.95s-17.17,2.98-22.23,8.95c-5.07,5.96-7.59,15.45-7.59,28.46v41.2h-56.38v-37.41c0-30.72,7.4-54.3,22.23-70.75,14.81-16.44,36.5-24.67,65.06-24.67s50.87,8.23,65.87,24.67c14.99,16.45,22.5,40.03,22.5,70.75,0,16.63-2.98,32.62-8.95,47.98-5.96,15.37-16.18,32.62-30.63,51.78-11.57,15.54-19.61,28.46-24.12,38.76-4.52,10.3-6.78,20.33-6.78,30.09v20.6h-52.05v-22.77ZM218.59,390.99h57.47v57.47h-57.47v-57.47Z"/>
</svg>